<?xml version="1.0" standalone="no"?>
<!DOCTYPE svg PUBLIC "-//W3C//DTD SVG 20010904//EN"
 "http://www.w3.org/TR/2001/REC-SVG-20010904/DTD/svg10.dtd">
<svg version="1.0" xmlns="http://www.w3.org/2000/svg"
 width="512.000000pt" height="512.000000pt" viewBox="0 0 512.000000 512.000000"
 preserveAspectRatio="xMidYMid meet">
<metadata>
Created by potrace 1.16, written by Peter Selinger 2001-2019
</metadata>
<g transform="translate(0.000000,512.000000) scale(0.100000,-0.100000)"
fill="#000000" stroke="none">
<path d="M2390 4070 c-151 -15 -327 -68 -365 -110 -23 -26 -11 -25 77 4 138
46 232 61 393 60 159 -1 234 -13 371 -59 324 -109 644 -403 842 -775 168 -315
225 -683 157 -1015 -75 -365 -324 -707 -651 -893 -551 -312 -1197 -229 -1662
213 -194 185 -311 374 -382 620 -15 54 -16 87 -9 290 4 141 14 263 24 315 26
134 82 295 147 423 104 204 215 342 413 511 127 109 201 162 305 220 80 44 72
47 -13 5 -57 -29 -183 -112 -267 -176 l-35 -27 40 43 c22 23 73 67 113 98 39
31 72 58 72 60 0 9 -116 -61 -194 -116 -147 -104 -310 -273 -404 -419 -150
-233 -249 -528 -267 -797 -7 -100 -7 -101 -34 -100 -30 0 -30 2 -12 -125 32
-223 94 -406 196 -575 88 -144 137 -206 254 -317 210 -200 456 -328 745 -390
135 -28 387 -30 526 -4 133 26 313 86 421 142 358 185 644 557 742 964 32 132
37 348 12 513 -52 350 -255 738 -530 1011 -245 243 -509 378 -801 406 -109 10
-116 10 -224 0z"/>
<path d="M2331 3749 c-400 -48 -663 -287 -688 -624 -4 -59 -13 -95 -33 -135
-15 -30 -35 -79 -44 -108 -20 -70 -31 -194 -19 -217 8 -13 11 -2 15 46 3 35
17 99 32 142 26 77 92 195 103 184 3 -3 -4 -38 -16 -76 -38 -125 -46 -215 -32
-379 20 -235 41 -322 113 -465 88 -177 211 -302 376 -380 59 -28 77 -32 152
-32 77 0 92 3 160 36 132 65 149 96 21 39 -98 -42 -152 -53 -220 -40 -216 39
-452 295 -521 566 -27 106 -25 110 17 31 72 -136 228 -273 381 -336 262 -108
608 -104 797 10 54 32 114 89 163 154 l23 30 -3 -53 c-2 -28 0 -52 4 -52 14 0
92 125 121 193 35 84 57 197 56 285 l-1 67 -14 -58 c-29 -122 -104 -238 -188
-294 -36 -24 -66 -34 -134 -43 -103 -14 -272 -57 -397 -100 -118 -41 -200 -48
-299 -26 -109 25 -202 75 -290 157 -134 125 -209 276 -210 424 -1 71 2 86 29
134 43 77 102 135 161 155 90 32 93 37 26 32 -69 -5 -141 -39 -168 -82 -9 -13
-18 -23 -20 -21 -2 2 2 37 10 78 8 41 17 105 21 143 18 180 118 326 273 399
57 27 81 32 162 35 78 3 106 0 160 -18 116 -39 260 -153 307 -243 15 -29 15
-30 -9 -23 -12 3 -59 9 -103 12 -159 12 -291 -41 -415 -166 -116 -116 -170
-240 -170 -391 0 -137 47 -248 149 -350 58 -58 76 -70 135 -88 125 -39 225
-24 391 59 126 62 201 121 253 200 146 218 84 531 -134 675 l-58 38 40 15 c23
9 76 15 129 16 82 1 96 -2 159 -32 80 -38 189 -143 244 -235 50 -84 100 -204
129 -314 24 -88 26 -116 26 -273 1 -149 -3 -187 -21 -255 -27 -100 -108 -265
-162 -329 -86 -103 -222 -193 -365 -242 -112 -38 -311 -46 -398 -17 -53 18
-56 19 -41 2 29 -32 114 -61 203 -68 l86 -7 -101 -13 c-146 -20 -332 -10 -453
23 -207 58 -358 149 -524 318 -122 123 -127 112 -14 -30 154 -196 469 -348
757 -368 211 -14 496 56 693 171 203 119 381 359 439 590 28 117 32 356 6 450
-9 33 -26 107 -38 165 -27 135 -65 231 -127 322 -28 40 -62 99 -77 130 -53
112 -172 245 -258 289 -20 10 -40 19 -44 19 -4 0 33 -42 82 -92 102 -105 129
-140 170 -218 16 -30 45 -77 65 -105 36 -48 99 -164 99 -180 0 -5 -19 21 -41
56 -61 94 -170 197 -259 243 -66 35 -85 40 -158 44 -46 3 -117 -1 -157 -8
l-74 -13 -88 90 c-77 79 -101 96 -193 142 -118 58 -234 91 -324 92 l-61 0 40
15 c221 82 515 59 746 -57 81 -40 116 -45 69 -8 -146 113 -408 175 -629 148z
m366 -503 c3 -3 -1 -14 -10 -24 -16 -18 -15 -21 20 -58 50 -52 103 -153 103
-195 0 -26 3 -30 12 -21 13 13 39 16 37 5 -1 -5 0 -12 1 -18 7 -27 -3 -136
-15 -181 -30 -105 -130 -194 -259 -229 -138 -38 -281 17 -341 129 -11 20 -23
36 -27 36 -4 0 -13 -18 -19 -40 -15 -50 -30 -41 -59 36 -27 73 -27 190 -1 267
50 144 163 250 313 292 52 15 231 16 245 1z m11 -1158 c32 -32 -18 -87 -53
-58 -28 23 -12 70 25 70 9 0 21 -5 28 -12z"/>
<path d="M1590 3443 c-91 -103 -204 -297 -244 -418 -64 -198 -91 -465 -67
-661 27 -212 105 -444 205 -608 55 -91 58 -104 11 -45 -49 63 -138 239 -173
344 -33 99 -67 262 -77 368 -9 95 -25 73 -25 -34 0 -203 85 -462 211 -644 50
-73 100 -125 120 -125 6 0 7 6 4 13 -4 6 4 -1 16 -18 41 -56 194 -200 253
-239 136 -90 308 -160 474 -193 133 -26 376 -24 510 5 306 68 573 241 767 501
60 80 165 268 180 321 3 14 -16 -21 -44 -77 -190 -390 -528 -645 -951 -719
-144 -25 -421 -15 -551 19 -250 66 -448 187 -583 359 -314 397 -412 933 -259
1423 43 137 154 337 244 440 17 19 29 35 26 35 -3 0 -24 -21 -47 -47z"/>
<path d="M2810 3483 c-26 -10 -50 -35 -50 -54 0 -27 19 -33 40 -14 28 26 89
44 150 46 l55 1 -40 13 c-41 14 -128 18 -155 8z"/>
<path d="M3745 2965 c4 -11 16 -45 26 -75 54 -152 77 -392 57 -580 -5 -50 -4
-57 3 -30 19 69 22 279 5 380 -17 108 -59 260 -82 299 -9 15 -12 17 -9 6z"/>
<path d="M3793 2158 c-12 -46 -24 -92 -28 -103 -5 -16 -5 -17 4 -4 13 20 53
167 49 180 -2 5 -13 -28 -25 -73z"/>
<path d="M3860 1471 c-143 -46 -250 -139 -250 -216 0 -17 -7 -40 -15 -51 -18
-24 -20 -48 -3 -38 7 5 41 7 76 6 79 -3 134 22 198 90 43 46 104 156 104 189
0 20 -20 39 -39 38 -9 0 -41 -8 -71 -18z m26 -109 c-14 -21 -40 -52 -57 -68
-30 -28 -31 -28 -19 -4 18 35 91 122 98 116 3 -3 -7 -23 -22 -44z"/>
</g>
</svg>